<svg xmlns="http://www.w3.org/2000/svg" viewBox="0 0 64 64">
  <!-- Background circle -->
  <circle cx="32" cy="32" r="30" fill="#1a1a1a" />

  <!-- Gold border -->
  <circle cx="32" cy="32" r="28" fill="none" stroke="#b5a265" stroke-width="2" />

  <!-- Stylized "B" letter for Bruno -->
  <path d="M22 18h12c3.3 0 6 2.7 6 6 0 2.5-1.5 4.7-3.7 5.6 2.9 0.8 5.1 3.5 5.1 6.8 0 3.9-3.1 7-7 7H22V18z" fill="none" stroke="#b5a265" stroke-width="3" stroke-linejoin="round" />

  <!-- Internal details for the B -->
  <path d="M28 26h4c1.1 0 2-0.9 2-2s-0.9-2-2-2h-4v4z" fill="#b5a265" />
  <path d="M28 36h6c1.1 0 2-0.9 2-2s-0.9-2-2-2h-6v4z" fill="#b5a265" />

  <!-- Code bracket to represent programming -->
  <path d="M46 20l-4 24" stroke="#b5a265" stroke-width="2" stroke-linecap="round" />
</svg>
